<?xml version="1.0" encoding="UTF-8" standalone="no"?>
<svg width="208px" height="77px" viewBox="0 0 208 77" version="1.1" xmlns="http://www.w3.org/2000/svg" xmlns:xlink="http://www.w3.org/1999/xlink" xmlns:sketch="http://www.bohemiancoding.com/sketch/ns">
    <!-- Generator: Sketch 3.2.2 (9983) - http://www.bohemiancoding.com/sketch -->
    <title>CP Logo</title>
    <desc>Created with Sketch.</desc>
    <defs></defs>
    <g id="Page-1" stroke="none" stroke-width="1" fill="none" fill-rule="evenodd" sketch:type="MSPage">
        <g id="Desktop-900" sketch:type="MSArtboardGroup" transform="translate(-100.000000, -30.000000)">
            <g id="Navigation-+-Logo" sketch:type="MSLayerGroup" transform="translate(-0.125000, 0.000000)">
                <g id="CP-Logo" transform="translate(100.125000, 30.000000)" sketch:type="MSShapeGroup">
                    <path d="M10.0178605,73.2707027 C9.105701,74.0844054 8.12236545,74.4805045 7.01326246,74.4805045 C4.35970764,74.4805045 2.50705648,72.5208198 2.50705648,69.7155225 C2.50705648,66.8554234 4.29544186,64.9338919 6.95798007,64.9338919 C8.02838538,64.9338919 9.09049834,65.3265225 9.87136213,66.0132793 L10.0220066,66.1457748 L11.3287442,64.5183694 L11.1974485,64.3962793 C10.1374086,63.4084595 8.63096346,62.8646036 6.95798007,62.8646036 C3.05711628,62.8646036 0.225275748,65.7455135 0.225275748,69.7155225 C0.225275748,73.7375586 3.00943522,76.5484054 6.99460465,76.5484054 C9.2259402,76.5484054 10.6681196,75.4593063 11.3301262,74.8113964 L11.4579668,74.6865315 L10.1657409,73.1395946 L10.0178605,73.2707027" id="Fill-1" fill="#424B4F"></path>
                    <path d="M18.1478272,62.8646036 C14.2683854,62.8646036 11.4524385,65.7455135 11.4524385,69.7155225 C11.4524385,73.7375586 14.213794,76.5484054 18.166485,76.5484054 C22.0673488,76.5484054 24.8991894,73.6668018 24.8991894,69.6974865 C24.8991894,65.7378829 22.0597475,62.8646036 18.1478272,62.8646036 L18.1478272,62.8646036 Z M18.166485,74.4805045 C15.5571561,74.4805045 13.7342193,72.5208198 13.7342193,69.7155225 C13.7342193,66.9005135 15.5571561,64.9338919 18.166485,64.9338919 C20.7868704,64.9338919 22.6167176,66.9005135 22.6167176,69.7155225 C22.6167176,72.5645225 20.8290233,74.4805045 18.166485,74.4805045 L18.166485,74.4805045 Z" id="Fill-2" fill="#424B4F"></path>
                    <path d="M34.7111229,72.4972342 L28.5775415,63.2093694 L28.520186,63.1233514 L26.3648638,63.1233514 L26.3648638,76.3083874 L28.5174219,76.3083874 L28.5174219,67.0364775 L34.68901,76.2244505 L34.7463654,76.3083874 L36.8636811,76.3083874 L36.8636811,63.1233514 L34.7111229,63.1233514 L34.7111229,72.4972342" id="Fill-3" fill="#424B4F"></path>
                    <path d="M44.3212757,69.0086486 C43.8299535,68.7499009 43.3455415,68.5528919 42.8777143,68.3628198 C42.5653688,68.2351802 42.2571694,68.1096216 41.9586445,67.9715766 C41.1687973,67.5844955 40.8322658,67.1051532 40.8322658,66.3691441 C40.8322658,65.4007477 41.4348439,64.8222072 42.4451296,64.8222072 C43.5044784,64.8222072 44.1333156,65.5027207 44.1699402,66.6882432 L44.1761595,66.8748468 L46.2070963,66.8748468 L46.2126246,66.6882432 C46.246485,65.536018 45.922392,64.5738649 45.274897,63.9051441 C44.6184186,63.2274054 43.6668704,62.8826396 42.4451296,62.8826396 C40.2179402,62.8826396 38.6610498,64.3387027 38.6610498,66.4232523 C38.6610498,67.9500721 39.3023256,69.078018 40.5669103,69.7737928 C41.0105515,70.0165856 41.460412,70.2004144 41.8957608,70.3766126 C42.317289,70.547955 42.7153223,70.7095856 43.1175017,70.9246306 C43.9854352,71.3505586 44.372412,71.9138378 44.372412,72.7497387 C44.372412,73.8735225 43.6489037,74.5720721 42.4831362,74.5720721 C40.8447043,74.5720721 40.5005714,73.3296667 40.5005714,72.2877387 L40.5005714,72.0948919 L38.3694352,72.0948919 L38.3666711,72.2842703 C38.3431761,73.6126937 38.711495,74.7031802 39.4308571,75.4384955 C40.1405449,76.1627117 41.1674153,76.5296757 42.4831362,76.5296757 C44.9445847,76.5296757 46.5989103,74.9438919 46.5989103,72.5825586 C46.5989103,70.9246306 45.852598,69.7557568 44.3212757,69.0086486" id="Fill-4" fill="#424B4F"></path>
                    <path d="M46.8649568,65.1926396 L49.480505,65.1926396 L49.480505,76.3083874 L51.6710698,76.3083874 L51.6710698,65.1926396 L54.2866179,65.1926396 L54.2866179,63.1233514 L46.8649568,63.1233514 L46.8649568,65.1926396" id="Fill-5" fill="#424B4F"></path>
                    <path d="M63.0060332,66.7936847 C63.0060332,64.4261081 61.6094618,63.1233514 59.0740731,63.1233514 L55.5836811,63.1233514 L55.5836811,76.3083874 L57.7735548,76.3083874 L57.7735548,70.5195135 L58.9766379,70.5195135 L61.9791628,76.3083874 L64.3480133,76.3083874 L61.0898073,70.085955 C62.3274419,69.4852162 63.0060332,68.3253604 63.0060332,66.7936847 L63.0060332,66.7936847 Z M57.7735548,65.0996847 L58.9814751,65.0996847 C60.134113,65.0996847 60.7429103,65.6914054 60.7429103,66.8117207 C60.7429103,67.9639459 60.1175282,68.597982 58.9814751,68.597982 L57.7735548,68.597982 L57.7735548,65.0996847 L57.7735548,65.0996847 Z" id="Fill-6" fill="#424B4F"></path>
                    <path d="M72.5021661,71.2693964 C72.5021661,73.2797207 71.4448904,74.4805045 69.6730897,74.4805045 C67.3194419,74.4805045 66.8246645,72.7441892 66.8246645,71.2874324 L66.8246645,63.1233514 L64.6354817,63.1233514 L64.6354817,71.2874324 C64.6354817,74.631036 66.4646379,76.5484054 69.6551229,76.5484054 C72.7039468,76.5484054 74.6740731,74.4832793 74.6740731,71.2874324 L74.6740731,63.1233514 L72.5021661,63.1233514 L72.5021661,71.2693964" id="Fill-7" fill="#424B4F"></path>
                    <path d="M85.858392,73.2707027 C84.9462326,74.0844054 83.962897,74.4805045 82.853103,74.4805045 C80.2002392,74.4805045 78.347588,72.5208198 78.347588,69.7155225 C78.347588,66.8554234 80.1352824,64.9338919 82.7978206,64.9338919 C83.8689169,64.9338919 84.9303389,65.3265225 85.7112027,66.0132793 L85.8618472,66.1457748 L87.1685847,64.5183694 L87.037289,64.3962793 C85.9772492,63.4084595 84.471495,62.8646036 82.7978206,62.8646036 C78.8969568,62.8646036 76.0658073,65.7455135 76.0658073,69.7155225 C76.0658073,73.7375586 78.8492757,76.5484054 82.8344452,76.5484054 C85.0657807,76.5484054 86.5086512,75.4593063 87.1699668,74.8113964 L87.2978073,74.6865315 L86.0062724,73.1395946 L85.858392,73.2707027" id="Fill-8" fill="#424B4F"></path>
                    <path d="M87.7718538,65.1926396 L90.387402,65.1926396 L90.387402,76.3083874 L92.5779668,76.3083874 L92.5779668,65.1926396 L95.193515,65.1926396 L95.193515,63.1233514 L87.7718538,63.1233514 L87.7718538,65.1926396" id="Fill-9" fill="#424B4F"></path>
                    <path d="M96.489196,63.1233514 L98.6797608,63.1233514 L98.6797608,76.3083874 L96.489196,76.3083874 L96.489196,63.1233514 Z" id="Fill-10" fill="#424B4F"></path>
                    <path d="M105.80497,73.3116306 L102.04093,63.2482162 L101.99394,63.1233514 L99.5539136,63.1233514 L104.659934,76.3083874 L106.856718,76.3083874 L111.962047,63.1233514 L109.633276,63.1233514 L105.80497,73.3116306" id="Fill-11" fill="#424B4F"></path>
                    <path d="M115.03091,70.5555856 L118.679548,70.5555856 L118.679548,68.5057207 L115.03091,68.5057207 L115.03091,65.1926396 L118.771455,65.1926396 L118.771455,63.1233514 L112.841037,63.1233514 L112.841037,76.3083874 L118.826047,76.3083874 L118.826047,74.2390991 L115.03091,74.2390991 L115.03091,70.5555856" id="Fill-12" fill="#424B4F"></path>
                    <path d="M128.591681,63.1330631 L125.101289,63.1330631 L125.101289,76.3180991 L127.291163,76.3180991 L127.291163,70.5847207 L128.591681,70.5847207 C130.980571,70.5847207 132.523641,69.1002162 132.523641,66.8033964 C132.523641,64.4358198 131.12707,63.1330631 128.591681,63.1330631 L128.591681,63.1330631 Z M127.291163,65.1093964 L128.499774,65.1093964 C129.651721,65.1093964 130.261209,65.7011171 130.261209,66.8214324 C130.261209,67.9736577 129.635136,68.6076937 128.499774,68.6076937 L127.291163,68.6076937 L127.291163,65.1093964 L127.291163,65.1093964 Z" id="Fill-13" fill="#424B4F"></path>
                    <path d="M136.404465,63.1330631 L131.46913,76.3180991 L133.666605,76.3180991 L135.251136,72.1018288 L139.777382,72.1018288 L141.417196,76.3180991 L143.728691,76.3180991 L138.565316,63.1330631 L136.404465,63.1330631 L136.404465,63.1330631 Z M139.020013,70.1615676 L135.967734,70.1615676 L137.478326,66.1756036 L139.020013,70.1615676 L139.020013,70.1615676 Z" id="Fill-14" fill="#424B4F"></path>
                    <path d="M142.615442,65.2023514 L145.23099,65.2023514 L145.23099,76.3180991 L147.421555,76.3180991 L147.421555,65.2023514 L150.037103,65.2023514 L150.037103,63.1330631 L142.615442,63.1330631 L142.615442,65.2023514" id="Fill-15" fill="#424B4F"></path>
                    <path d="M159.238166,68.4419009 L153.52404,68.4419009 L153.52404,63.1330631 L151.333475,63.1330631 L151.333475,76.3180991 L153.52404,76.3180991 L153.52404,70.5472613 L159.238166,70.5472613 L159.238166,76.3180991 L161.42804,76.3180991 L161.42804,63.1330631 L159.238166,63.1330631 L159.238166,68.4419009" id="Fill-16" fill="#424B4F"></path>
                    <path d="M178.676146,63.1330631 L175.777967,72.9717207 L172.826578,63.1330631 L170.588332,63.1330631 L167.636944,72.9751892 L164.720106,63.1330631 L162.364385,63.1330631 L166.425568,76.3180991 L168.680399,76.3180991 L171.669794,66.6591081 L174.642605,76.3180991 L176.917475,76.3180991 L180.921302,63.1330631 L178.676146,63.1330631" id="Fill-17" fill="#424B4F"></path>
                    <path d="M184.481488,63.1330631 L179.546153,76.3180991 L181.743628,76.3180991 L183.328159,72.1018288 L187.854405,72.1018288 L189.494219,76.3180991 L191.805023,76.3180991 L186.642339,63.1330631 L184.481488,63.1330631 L184.481488,63.1330631 Z M187.097728,70.1615676 L184.044757,70.1615676 L185.555349,66.1756036 L187.097728,70.1615676 L187.097728,70.1615676 Z" id="Fill-18" fill="#424B4F"></path>
                    <path d="M197.184691,63.1330631 L194.772306,67.3937297 L192.35992,63.1330631 L189.888106,63.1330631 L193.62105,69.6107748 L193.62105,76.3180991 L195.811615,76.3180991 L195.811615,69.5941261 L199.565289,63.1330631 L197.184691,63.1330631" id="Fill-19" fill="#424B4F"></path>
                    <path d="M205.257302,69.0190541 C204.76598,68.7596126 204.280877,68.5626036 203.81305,68.3725315 C203.501395,68.2448919 203.192505,68.1193333 202.89398,67.9812883 C202.104133,67.5942072 201.767601,67.1148649 201.767601,66.3788559 C201.767601,65.4104595 202.37087,64.8319189 203.381156,64.8319189 C204.440505,64.8319189 205.068651,65.5124324 205.105276,66.697955 L205.111495,66.8845586 L207.143123,66.8845586 L207.14796,66.697955 C207.181821,65.5457297 206.857728,64.5835766 206.210233,63.9148559 C205.554445,63.2371171 204.602206,62.8923514 203.381156,62.8923514 C201.153276,62.8923514 199.597076,64.3484144 199.597076,66.432964 C199.597076,67.9597838 200.238352,69.0877297 201.502937,69.7835045 C201.945887,70.0262973 202.396439,70.2101261 202.831096,70.3863243 C203.252625,70.5576667 203.651349,70.7192973 204.052837,70.9343423 C204.920771,71.360964 205.307748,71.9235495 205.307748,72.7594505 C205.307748,73.8832342 204.584239,74.5817838 203.418472,74.5817838 C201.78004,74.5817838 201.435907,73.3393784 201.435907,72.2974505 L201.435907,72.1046036 L199.304771,72.1046036 L199.302007,72.293982 C199.278512,73.6224054 199.646831,74.7128919 200.366193,75.4482072 C201.07588,76.1724234 202.102751,76.5393874 203.418472,76.5393874 C205.880611,76.5393874 207.534246,74.9542973 207.534246,72.5922703 C207.534246,70.9343423 206.787934,69.7654685 205.257302,69.0190541" id="Fill-20" fill="#424B4F"></path>
                    <path d="M42.3013953,22.3626036 C42.3013953,23.7444414 41.1853821,24.8647568 39.8088505,24.8647568 C38.4316279,24.8647568 37.3156146,23.7444414 37.3156146,22.3626036 C37.3156146,20.9800721 38.4316279,19.8597568 39.8088505,19.8597568 C41.1853821,19.8597568 42.3013953,20.9800721 42.3013953,22.3626036" id="Fill-21" fill="#5EBEBE"></path>
                    <path d="M168.611296,20.6942703 C168.611296,22.0761081 167.495282,23.1964234 166.11806,23.1964234 C164.741528,23.1964234 163.625515,22.0761081 163.625515,20.6942703 C163.625515,19.3117387 164.741528,18.1914234 166.11806,18.1914234 C167.495282,18.1914234 168.611296,19.3117387 168.611296,20.6942703" id="Fill-22" fill="#F2B129"></path>
                    <path d="M60.2066711,8.93754955 C60.2066711,10.7806937 58.7181927,12.2742162 56.8828173,12.2742162 C55.0467508,12.2742162 53.5582724,10.7806937 53.5582724,8.93754955 C53.5582724,7.0950991 55.0467508,5.60088288 56.8828173,5.60088288 C58.7181927,5.60088288 60.2066711,7.0950991 60.2066711,8.93754955" id="Fill-23" fill="#F2B129"></path>
                    <path d="M79.1146312,17.5601622 C79.1146312,20.3245315 76.8819136,22.5658559 74.1281595,22.5658559 C71.3750963,22.5658559 69.1423787,20.3245315 69.1423787,17.5601622 C69.1423787,14.7964865 71.3750963,12.5551622 74.1281595,12.5551622 C76.8819136,12.5551622 79.1146312,14.7964865 79.1146312,17.5601622" id="Fill-24" fill="#E1586E"></path>
                    <path d="M146.759548,33.1141622 C146.759548,30.6959459 148.712399,28.7348739 151.12202,28.7348739 C153.531641,28.7348739 155.484492,30.6959459 155.484492,33.1141622 C155.484492,35.5330721 153.531641,37.4941441 151.12202,37.4941441 C148.712399,37.4941441 146.759548,35.5330721 146.759548,33.1141622" id="Fill-25" fill="#865995"></path>
                    <path d="M90.4986578,4.42299099 C90.4986578,2.11992793 92.3589103,0.252504505 94.6538206,0.252504505 C96.9480399,0.252504505 98.8082924,2.11992793 98.8082924,4.42299099 C98.8082924,6.72674775 96.9480399,8.59417117 94.6538206,8.59417117 C92.3589103,8.59417117 90.4986578,6.72674775 90.4986578,4.42299099" id="Fill-26" fill="#865995"></path>
                    <path d="M107.118618,38.6331892 C107.118618,36.3294324 108.97887,34.462009 111.27309,34.462009 C113.568,34.462009 115.428252,36.3294324 115.428252,38.6331892 C115.428252,40.9362523 113.568,42.8036757 111.27309,42.8036757 C108.97887,42.8036757 107.118618,40.9362523 107.118618,38.6331892" id="Fill-27" fill="#5EBEBE"></path>
                    <path d="M129.305515,24.2834414 C129.305515,22.4402973 130.793993,20.9467748 132.629369,20.9467748 C134.465435,20.9467748 135.953223,22.4402973 135.953223,24.2834414 C135.953223,26.1258919 134.465435,27.6201081 132.629369,27.6201081 C130.793993,27.6201081 129.305515,26.1258919 129.305515,24.2834414" id="Fill-28" fill="#E1586E"></path>
                    <path d="M59.7906711,29.5305405 C61.8527043,29.5305405 63.5305249,31.2141351 63.5305249,33.2841171 C63.5305249,35.3540991 61.8527043,37.0376937 59.7906711,37.0376937 C57.7286379,37.0376937 56.0515083,35.3540991 56.0515083,33.2841171 C56.0515083,31.2141351 57.7286379,29.5305405 59.7906711,29.5305405 M59.7906711,28.696027 C57.2663389,28.696027 55.2201993,30.7500541 55.2201993,33.2841171 C55.2201993,35.8181802 57.2663389,37.8722072 59.7906711,37.8722072 C62.3150033,37.8722072 64.3611429,35.8181802 64.3611429,33.2841171 C64.3611429,30.7500541 62.3150033,28.696027 59.7906711,28.696027" id="Fill-29" fill="#5EB345"></path>
                    <path d="M91.3679734,26.6843153 C92.5482525,26.6843153 93.508093,27.6478559 93.508093,28.8326847 C93.508093,30.0168198 92.5482525,30.9803604 91.3679734,30.9803604 C90.1883854,30.9803604 89.2285449,30.0168198 89.2285449,28.8326847 C89.2285449,27.6478559 90.1883854,26.6843153 91.3679734,26.6843153 M91.3679734,25.9129279 C89.7620199,25.9129279 88.4601196,27.2198468 88.4601196,28.8326847 C88.4601196,30.4448288 89.7620199,31.7524414 91.3679734,31.7524414 C92.9746179,31.7524414 94.2765183,30.4448288 94.2765183,28.8326847 C94.2765183,27.2198468 92.9746179,25.9129279 91.3679734,25.9129279" id="Fill-30" fill="#5EB345"></path>
                    <path d="M116.220864,10.6343243 C118.282897,10.6343243 119.960027,12.3186126 119.960027,14.3879009 C119.960027,16.4578829 118.282897,18.1421712 116.220864,18.1421712 C114.158831,18.1421712 112.48101,16.4578829 112.48101,14.3879009 C112.48101,12.3186126 114.158831,10.6343243 116.220864,10.6343243 M116.220864,9.8005045 C113.696532,9.8005045 111.650392,11.8545315 111.650392,14.3879009 C111.650392,16.921964 113.696532,18.975991 116.220864,18.975991 C118.744505,18.975991 120.791336,16.921964 120.791336,14.3879009 C120.791336,11.8545315 118.744505,9.8005045 116.220864,9.8005045" id="Fill-31" fill="#5EB345"></path>
                    <path d="M146.136239,4.03452252 C147.315827,4.03452252 148.275668,4.99806306 148.275668,6.18289189 C148.275668,7.36702703 147.315827,8.33056757 146.136239,8.33056757 C144.95596,8.33056757 143.99612,7.36702703 143.99612,6.18289189 C143.99612,4.99806306 144.95596,4.03452252 146.136239,4.03452252 M146.136239,3.26313514 C144.529595,3.26313514 143.227694,4.57005405 143.227694,6.18289189 C143.227694,7.79503604 144.529595,9.10264865 146.136239,9.10264865 C147.742193,9.10264865 149.044784,7.79503604 149.044784,6.18289189 C149.044784,4.57005405 147.742193,3.26313514 146.136239,3.26313514" id="Fill-32" fill="#5EB345"></path>
                </g>
            </g>
        </g>
    </g>
</svg>